<svg baseProfile="full" height="1017.0pt" overflow="visible" version="1.1" viewBox="0 0 43.375 14.125" width="3123.0pt" xmlns="http://www.w3.org/2000/svg" xmlns:ev="http://www.w3.org/2001/xml-events" xmlns:xlink="http://www.w3.org/1999/xlink"><defs><style type="text/css"><![CDATA[
.dieline-cut {
  fill: none;
  stroke: #dc2626;
  stroke-width: 0.007;
  shape-rendering: geometricPrecision;
}
.dieline-crease {
  fill: none;
  stroke: #16a34a;
  stroke-width: 0.007;
  stroke-dasharray: 0.06 0.04;
  shape-rendering: geometricPrecision;
}
]]></style></defs><g id="crease-lines"><line class="dieline-crease" x1="0.5" x2="0.5" y1="4.875" y2="9.25" /><line class="dieline-crease" x1="12.625" x2="12.625" y1="4.875" y2="9.25" /><line class="dieline-crease" x1="21.8125" x2="21.8125" y1="4.875" y2="9.25" /><line class="dieline-crease" x1="34.0" x2="34.0" y1="4.875" y2="9.25" /><line class="dieline-crease" x1="0.5" x2="12.4687" y1="4.875" y2="4.875" /><line class="dieline-crease" x1="0.5" x2="12.4687" y1="9.25" y2="9.25" /><line class="dieline-crease" x1="12.7813" x2="21.6562" y1="4.875" y2="4.875" /><line class="dieline-crease" x1="12.7813" x2="21.6562" y1="9.25" y2="9.25" /><line class="dieline-crease" x1="21.9688" x2="33.8437" y1="4.875" y2="4.875" /><line class="dieline-crease" x1="21.9688" x2="33.8437" y1="9.25" y2="9.25" /><line class="dieline-crease" x1="34.1563" x2="43.125" y1="4.875" y2="4.875" /><line class="dieline-crease" x1="34.1563" x2="43.125" y1="9.25" y2="9.25" /></g><g id="cut-lines"><line class="dieline-cut" x1="0.5" x2="12.4687" y1="0.25" y2="0.25" /><path class="dieline-cut" d="M 12.4687 4.75 A 0.125 0.125 0 0 0 12.5937 4.875" /><line class="dieline-cut" x1="12.4687" x2="12.4687" y1="0.25" y2="4.75" /><path class="dieline-cut" d="M 12.6563 4.875 A 0.125 0.125 0 0 0 12.7813 4.75" /><line class="dieline-cut" x1="12.5937" x2="12.6563" y1="4.875" y2="4.875" /><line class="dieline-cut" x1="12.7813" x2="12.7813" y1="4.75" y2="0.25" /><line class="dieline-cut" x1="12.7813" x2="21.6562" y1="0.25" y2="0.25" /><path class="dieline-cut" d="M 21.6562 4.75 A 0.125 0.125 0 0 0 21.7812 4.875" /><line class="dieline-cut" x1="21.6562" x2="21.6562" y1="0.25" y2="4.75" /><path class="dieline-cut" d="M 21.8438 4.875 A 0.125 0.125 0 0 0 21.9688 4.75" /><line class="dieline-cut" x1="21.7812" x2="21.8438" y1="4.875" y2="4.875" /><line class="dieline-cut" x1="21.9688" x2="21.9688" y1="4.75" y2="0.25" /><line class="dieline-cut" x1="21.9688" x2="33.8437" y1="0.25" y2="0.25" /><path class="dieline-cut" d="M 33.8437 4.75 A 0.125 0.125 0 0 0 33.9687 4.875" /><line class="dieline-cut" x1="33.8437" x2="33.8437" y1="0.25" y2="4.75" /><path class="dieline-cut" d="M 34.0313 4.875 A 0.125 0.125 0 0 0 34.1563 4.75" /><line class="dieline-cut" x1="33.9687" x2="34.0313" y1="4.875" y2="4.875" /><line class="dieline-cut" x1="34.1563" x2="34.1563" y1="4.75" y2="0.25" /><line class="dieline-cut" x1="34.1563" x2="43.125" y1="0.25" y2="0.25" /><line class="dieline-cut" x1="43.125" x2="43.125" y1="0.25" y2="13.875" /><line class="dieline-cut" x1="43.125" x2="34.1563" y1="13.875" y2="13.875" /><path class="dieline-cut" d="M 34.1563 9.375 A 0.125 0.125 0 0 0 34.0313 9.25" /><line class="dieline-cut" x1="34.1563" x2="34.1563" y1="13.875" y2="9.375" /><path class="dieline-cut" d="M 33.9687 9.25 A 0.125 0.125 0 0 0 33.8437 9.375" /><line class="dieline-cut" x1="34.0313" x2="33.9687" y1="9.25" y2="9.25" /><line class="dieline-cut" x1="33.8437" x2="33.8437" y1="9.375" y2="13.875" /><line class="dieline-cut" x1="33.8437" x2="21.9688" y1="13.875" y2="13.875" /><path class="dieline-cut" d="M 21.9688 9.375 A 0.125 0.125 0 0 0 21.8438 9.25" /><line class="dieline-cut" x1="21.9688" x2="21.9688" y1="13.875" y2="9.375" /><path class="dieline-cut" d="M 21.7812 9.25 A 0.125 0.125 0 0 0 21.6562 9.375" /><line class="dieline-cut" x1="21.8438" x2="21.7812" y1="9.25" y2="9.25" /><line class="dieline-cut" x1="21.6562" x2="21.6562" y1="9.375" y2="13.875" /><line class="dieline-cut" x1="21.6562" x2="12.7813" y1="13.875" y2="13.875" /><path class="dieline-cut" d="M 12.7813 9.375 A 0.125 0.125 0 0 0 12.6563 9.25" /><line class="dieline-cut" x1="12.7813" x2="12.7813" y1="13.875" y2="9.375" /><path class="dieline-cut" d="M 12.5937 9.25 A 0.125 0.125 0 0 0 12.4687 9.375" /><line class="dieline-cut" x1="12.6563" x2="12.5937" y1="9.25" y2="9.25" /><line class="dieline-cut" x1="12.4687" x2="12.4687" y1="9.375" y2="13.875" /><line class="dieline-cut" x1="12.4687" x2="0.5" y1="13.875" y2="13.875" /><line class="dieline-cut" x1="0.5" x2="0.5" y1="13.875" y2="9.25" /><line class="dieline-cut" x1="0.5" x2="0.5" y1="9.25" y2="8.75" /><line class="dieline-cut" x1="0.5" x2="0.5" y1="8.75" y2="5.375" /><line class="dieline-cut" x1="0.5" x2="0.5" y1="5.375" y2="4.875" /><line class="dieline-cut" x1="0.5" x2="0.5" y1="4.875" y2="0.25" /></g></svg>