  0
SECTION
  2
HEADER
  9
$ACADVER
  1
AC1009
  9
$EXTMIN
 10
0
 20
0
  9
$EXTMAX
 10
108.95814
 20
52.8024
  0
ENDSEC
  0
SECTION
  2
TABLES
  0
TABLE
  2
LAYER
 70
 2
  0
LAYER
  2
Design
 70
64
 62
7
  6
CONTINUOUS
  0
LAYER
  2
Annotation
 70
64
 62
7
  6
CONTINUOUS
  0
ENDTAB
  0
ENDSEC
  0
SECTION
  2
BLOCKS
  0
BLOCK
  8
0
  2
*D1
 70
1
 10
0.0
 20
0.0
 30
0.0
  3
*D1
  1

  0
LINE
  8
Annotation
  6
CONTINUOUS
 62
20
 10
8.05112
 20
21.30258
 11
8.05112
 21
7.17396
  0
ARC
  8
Annotation
  6
CONTINUOUS
 62
20
 10
7.559287774
 20
13.763494595
 40
6.234056288
 50
-85.474980469
 51
-69.909313415
  0
ARC
  8
Annotation
  6
CONTINUOUS
 62
20
 10
7.559287973
 20
1.334246315
 40
6.234055364
 50
69.909312254
 51
85.474981629
  0
LINE
  8
Annotation
  6
CONTINUOUS
 62
20
 10
9.70073
 20
7.18896
 11
9.70073
 21
7.90878
  0
LINE
  8
Annotation
  6
CONTINUOUS
 62
20
 10
9.37081
 20
7.54887
 11
15.84534
 21
7.54887
  0
TEXT
  8
Annotation
  6
CONTINUOUS
 62
20
 10
16.59516
 20
6.91402
 40
1.94954
 41
0.9
 50
0
  1
20
 72
0
  0
TEXT
  8
Annotation
  6
CONTINUOUS
 62
20
 10
18.15671
 20
7.66085
 40
1.2477
 41
0.9
 50
0
  1
3
 72
0
  0
TEXT
  8
Annotation
  6
CONTINUOUS
 62
20
 10
18.4049
 20
7.15097
 40
1.2477
 41
0.9
 50
0
  1
/
 72
0
  0
TEXT
  8
Annotation
  6
CONTINUOUS
 62
20
 10
18.778
 20
6.76106
 40
1.2477
 41
0.9
 50
0
  1
16
 72
0
  0
LINE
  8
Annotation
  6
CONTINUOUS
 62
20
 10
20.40144
 20
7.54887
 11
26.91894
 21
7.54887
  0
ARC
  8
Annotation
  6
CONTINUOUS
 62
20
 10
28.730464803
 20
1.334247258
 40
6.234055433
 50
94.525136109
 51
110.090714681
  0
ARC
  8
Annotation
  6
CONTINUOUS
 62
20
 10
28.730465033
 20
13.763493797
 40
6.234056502
 50
-110.090713338
 51
-94.525137452
  0
LINE
  8
Annotation
  6
CONTINUOUS
 62
20
 10
26.58902
 20
7.90878
 11
26.58902
 21
7.18896
  0
LINE
  8
Annotation
  6
CONTINUOUS
 62
20
 10
28.23862
 20
7.17396
 11
28.23862
 21
21.30258
  0
ENDBLK
  0
BLOCK
  8
0
  2
*D2
 70
1
 10
0.0
 20
0.0
 30
0.0
  3
*D2
  1

  0
LINE
  8
Annotation
  6
CONTINUOUS
 62
20
 10
28.23862
 20
21.30258
 11
28.23862
 21
7.05994
  0
ARC
  8
Annotation
  6
CONTINUOUS
 62
20
 10
27.746787797
 20
13.649474489
 40
6.234056180
 50
-85.474980605
 51
-69.909313279
  0
ARC
  8
Annotation
  6
CONTINUOUS
 62
20
 10
27.746753966
 20
1.220233122
 40
6.234051262
 50
69.908965668
 51
85.474665123
  0
LINE
  8
Annotation
  6
CONTINUOUS
 62
20
 10
29.88823
 20
7.07493
 11
29.88823
 21
7.79476
  0
LINE
  8
Annotation
  6
CONTINUOUS
 62
20
 10
29.55831
 20
7.43485
 11
36.27794
 21
7.43485
  0
TEXT
  8
Annotation
  6
CONTINUOUS
 62
20
 10
37.02776
 20
6.8
 40
1.94954
 41
0.9
 50
0
  1
20
 72
0
  0
TEXT
  8
Annotation
  6
CONTINUOUS
 62
20
 10
38.58931
 20
7.54682
 40
1.2477
 41
0.9
 50
0
  1
5
 72
0
  0
TEXT
  8
Annotation
  6
CONTINUOUS
 62
20
 10
38.8375
 20
7.03694
 40
1.2477
 41
0.9
 50
0
  1
/
 72
0
  0
TEXT
  8
Annotation
  6
CONTINUOUS
 62
20
 10
39.2106
 20
6.64704
 40
1.2477
 41
0.9
 50
0
  1
16
 72
0
  0
LINE
  8
Annotation
  6
CONTINUOUS
 62
20
 10
40.83404
 20
7.43485
 11
47.23143
 21
7.43485
  0
ARC
  8
Annotation
  6
CONTINUOUS
 62
20
 10
49.042998562
 20
1.220235198
 40
6.234050181
 50
94.525451173
 51
110.091062714
  0
ARC
  8
Annotation
  6
CONTINUOUS
 62
20
 10
49.042964590
 20
13.649471767
 40
6.234054444
 50
-110.090715923
 51
-94.525134867
  0
LINE
  8
Annotation
  6
CONTINUOUS
 62
20
 10
46.90152
 20
7.79476
 11
46.90152
 21
7.07493
  0
LINE
  8
Annotation
  6
CONTINUOUS
 62
20
 10
48.55112
 20
7.05994
 11
48.55112
 21
21.30258
  0
ENDBLK
  0
BLOCK
  8
0
  2
*D3
 70
1
 10
0.0
 20
0.0
 30
0.0
  3
*D3
  1

  0
LINE
  8
Annotation
  6
CONTINUOUS
 62
20
 10
48.55112
 20
21.30258
 11
48.55112
 21
7.05994
  0
ARC
  8
Annotation
  6
CONTINUOUS
 62
20
 10
48.059288189
 20
13.649472695
 40
6.234054361
 50
-85.474982889
 51
-69.909310994
  0
ARC
  8
Annotation
  6
CONTINUOUS
 62
20
 10
48.059253716
 20
1.220231976
 40
6.234052424
 50
69.908967127
 51
85.474663663
  0
LINE
  8
Annotation
  6
CONTINUOUS
 62
20
 10
50.20073
 20
7.07493
 11
50.20073
 21
7.79476
  0
LINE
  8
Annotation
  6
CONTINUOUS
 62
20
 10
49.87081
 20
7.43485
 11
57.50924
 21
7.43485
  0
TEXT
  8
Annotation
  6
CONTINUOUS
 62
20
 10
58.25906
 20
6.8
 40
1.94954
 41
0.9
 50
0
  1
20
 72
0
  0
TEXT
  8
Annotation
  6
CONTINUOUS
 62
20
 10
59.82061
 20
7.54682
 40
1.2477
 41
0.9
 50
0
  1
5
 72
0
  0
TEXT
  8
Annotation
  6
CONTINUOUS
 62
20
 10
60.0688
 20
7.03694
 40
1.2477
 41
0.9
 50
0
  1
/
 72
0
  0
TEXT
  8
Annotation
  6
CONTINUOUS
 62
20
 10
60.4419
 20
6.64704
 40
1.2477
 41
0.9
 50
0
  1
16
 72
0
  0
LINE
  8
Annotation
  6
CONTINUOUS
 62
20
 10
62.06533
 20
7.43485
 11
67.54393
 21
7.43485
  0
ARC
  8
Annotation
  6
CONTINUOUS
 62
20
 10
69.355486202
 20
1.220232348
 40
6.234052046
 50
94.525335862
 51
110.091033347
  0
ARC
  8
Annotation
  6
CONTINUOUS
 62
20
 10
69.355451730
 20
13.649472323
 40
6.234053983
 50
-110.090689480
 51
-94.525016636
  0
LINE
  8
Annotation
  6
CONTINUOUS
 62
20
 10
67.21401
 20
7.79476
 11
67.21401
 21
7.07493
  0
LINE
  8
Annotation
  6
CONTINUOUS
 62
20
 10
68.86362
 20
7.05994
 11
68.86362
 21
21.30258
  0
ENDBLK
  0
BLOCK
  8
0
  2
*D4
 70
1
 10
0.0
 20
0.0
 30
0.0
  3
*D4
  1

  0
LINE
  8
Annotation
  6
CONTINUOUS
 62
20
 10
68.86362
 20
21.30258
 11
68.86362
 21
7.05994
  0
ARC
  8
Annotation
  6
CONTINUOUS
 62
20
 10
68.371775579
 20
13.649470993
 40
6.234053659
 50
-85.474866120
 51
-69.909283090
  0
ARC
  8
Annotation
  6
CONTINUOUS
 62
20
 10
68.371741106
 20
1.220233679
 40
6.234051721
 50
69.908939221
 51
85.474546892
  0
LINE
  8
Annotation
  6
CONTINUOUS
 62
20
 10
70.51322
 20
7.07493
 11
70.51322
 21
7.79476
  0
LINE
  8
Annotation
  6
CONTINUOUS
 62
20
 10
70.1833
 20
7.43485
 11
77.02905
 21
7.43485
  0
TEXT
  8
Annotation
  6
CONTINUOUS
 62
20
 10
77.77887
 20
6.8
 40
1.94954
 41
0.9
 50
0
  1
20
 72
0
  0
TEXT
  8
Annotation
  6
CONTINUOUS
 62
20
 10
79.34042
 20
7.54682
 40
1.2477
 41
0.9
 50
0
  1
3
 72
0
  0
TEXT
  8
Annotation
  6
CONTINUOUS
 62
20
 10
79.58861
 20
7.03694
 40
1.2477
 41
0.9
 50
0
  1
/
 72
0
  0
TEXT
  8
Annotation
  6
CONTINUOUS
 62
20
 10
79.96171
 20
6.64704
 40
1.2477
 41
0.9
 50
0
  1
16
 72
0
  0
LINE
  8
Annotation
  6
CONTINUOUS
 62
20
 10
81.58515
 20
7.43485
 11
87.73143
 21
7.43485
  0
ARC
  8
Annotation
  6
CONTINUOUS
 62
20
 10
89.542974255
 20
1.220227608
 40
6.234055829
 50
94.525222962
 51
110.091001572
  0
ARC
  8
Annotation
  6
CONTINUOUS
 62
20
 10
89.542939752
 20
13.649476920
 40
6.234057621
 50
-110.090657890
 51
-94.524903554
  0
LINE
  8
Annotation
  6
CONTINUOUS
 62
20
 10
87.4015
 20
7.79476
 11
87.4015
 21
7.07493
  0
LINE
  8
Annotation
  6
CONTINUOUS
 62
20
 10
89.05112
 20
7.05994
 11
89.05112
 21
11.05258
  0
ENDBLK
  0
BLOCK
  8
0
  2
*D5
 70
1
 10
0.0
 20
0.0
 30
0.0
  3
*D5
  1

  0
LINE
  8
Annotation
  6
CONTINUOUS
 62
20
 10
89.80094
 20
21.9899
 11
93.57603
 21
21.9899
  0
ARC
  8
Annotation
  6
CONTINUOUS
 62
20
 10
86.986510076
 20
21.498033302
 40
6.234054350
 50
4.525338757
 51
20.091030453
  0
ARC
  8
Annotation
  6
CONTINUOUS
 62
20
 10
99.415749179
 20
21.498068956
 40
6.234050795
 50
159.909306515
 51
175.474987369
  0
LINE
  8
Annotation
  6
CONTINUOUS
 62
20
 10
93.56104
 20
23.63951
 11
92.84121
 21
23.63951
  0
LINE
  8
Annotation
  6
CONTINUOUS
 62
20
 10
93.20113
 20
23.30959
 11
93.20113
 21
30.99272
  0
TEXT
  8
Annotation
  6
CONTINUOUS
 62
20
 10
91.95176
 20
31.66755
 40
1.94954
 41
0.9
 50
0
  1
20
 72
0
  0
TEXT
  8
Annotation
  6
CONTINUOUS
 62
20
 10
93.51332
 20
32.41438
 40
1.2477
 41
0.9
 50
0
  1
5
 72
0
  0
TEXT
  8
Annotation
  6
CONTINUOUS
 62
20
 10
93.76151
 20
31.9045
 40
1.2477
 41
0.9
 50
0
  1
/
 72
0
  0
TEXT
  8
Annotation
  6
CONTINUOUS
 62
20
 10
94.13461
 20
31.51459
 40
1.2477
 41
0.9
 50
0
  1
8
 72
0
  0
LINE
  8
Annotation
  6
CONTINUOUS
 62
20
 10
93.20113
 20
33.61209
 11
93.20113
 21
41.29522
  0
ARC
  8
Annotation
  6
CONTINUOUS
 62
20
 10
99.415749130
 20
43.106731033
 40
6.234050746
 50
-175.474987431
 51
-159.909306453
  0
ARC
  8
Annotation
  6
CONTINUOUS
 62
20
 10
86.986510125
 20
43.106766687
 40
6.234054301
 50
-20.091030515
 51
-4.525338695
  0
LINE
  8
Annotation
  6
CONTINUOUS
 62
20
 10
92.84121
 20
40.96529
 11
93.56104
 21
40.96529
  0
LINE
  8
Annotation
  6
CONTINUOUS
 62
20
 10
93.57603
 20
42.6149
 11
89.80094
 21
42.6149
  0
ENDBLK
  0
BLOCK
  8
0
  2
*D6
 70
1
 10
0.0
 20
0.0
 30
0.0
  3
*D6
  1

  0
LINE
  8
Annotation
  6
CONTINUOUS
 62
20
 10
89.80094
 20
42.61491
 11
93.57603
 21
42.61491
  0
ARC
  8
Annotation
  6
CONTINUOUS
 62
20
 10
86.986511698
 20
42.123030674
 40
6.234053730
 50
4.525455631
 51
20.091058256
  0
ARC
  8
Annotation
  6
CONTINUOUS
 62
20
 10
99.415747557
 20
42.123066328
 40
6.234050175
 50
159.909278714
 51
175.474870496
  0
LINE
  8
Annotation
  6
CONTINUOUS
 62
20
 10
93.56104
 20
44.26451
 11
92.84121
 21
44.26451
  0
LINE
  8
Annotation
  6
CONTINUOUS
 62
20
 10
93.20113
 20
43.93459
 11
93.20113
 21
46.39896
  0
TEXT
  8
Annotation
  6
CONTINUOUS
 62
20
 10
91.67289
 20
47.0738
 40
1.94954
 41
0.9
 50
0
  1
10
 72
0
  0
TEXT
  8
Annotation
  6
CONTINUOUS
 62
20
 10
93.09785
 20
47.82063
 40
1.2477
 41
0.9
 50
0
  1
3
 72
0
  0
TEXT
  8
Annotation
  6
CONTINUOUS
 62
20
 10
93.34603
 20
47.31075
 40
1.2477
 41
0.9
 50
0
  1
/
 72
0
  0
TEXT
  8
Annotation
  6
CONTINUOUS
 62
20
 10
93.71914
 20
46.92084
 40
1.2477
 41
0.9
 50
0
  1
16
 72
0
  0
LINE
  8
Annotation
  6
CONTINUOUS
 62
20
 10
93.20113
 20
49.01834
 11
93.20113
 21
51.48272
  0
ARC
  8
Annotation
  6
CONTINUOUS
 62
20
 10
99.415749731
 20
53.294231165
 40
6.234051355
 50
-175.474986666
 51
-159.909307218
  0
ARC
  8
Annotation
  6
CONTINUOUS
 62
20
 10
86.986509524
 20
53.294266818
 40
6.234054910
 50
-20.091029749
 51
-4.525339460
  0
LINE
  8
Annotation
  6
CONTINUOUS
 62
20
 10
92.84121
 20
51.15279
 11
93.56104
 21
51.15279
  0
LINE
  8
Annotation
  6
CONTINUOUS
 62
20
 10
93.57603
 20
52.8024
 11
89.80094
 21
52.8024
  0
ENDBLK
  0
BLOCK
  8
0
  2
*D7
 70
1
 10
0.0
 20
0.0
 30
0.0
  3
*D7
  1

  0
LINE
  8
Annotation
  6
CONTINUOUS
 62
20
 10
89.80094
 20
11.80241
 11
93.57603
 21
11.80241
  0
ARC
  8
Annotation
  6
CONTINUOUS
 62
20
 10
86.986511848
 20
11.310530707
 40
6.234053578
 50
4.525455440
 51
20.091058447
  0
ARC
  8
Annotation
  6
CONTINUOUS
 62
20
 10
99.415747407
 20
11.310566361
 40
6.234050022
 50
159.909278522
 51
175.474870688
  0
LINE
  8
Annotation
  6
CONTINUOUS
 62
20
 10
93.56104
 20
13.45201
 11
92.84121
 21
13.45201
  0
LINE
  8
Annotation
  6
CONTINUOUS
 62
20
 10
93.20113
 20
13.12209
 11
93.20113
 21
15.58647
  0
TEXT
  8
Annotation
  6
CONTINUOUS
 62
20
 10
91.67289
 20
16.26131
 40
1.94954
 41
0.9
 50
0
  1
10
 72
0
  0
TEXT
  8
Annotation
  6
CONTINUOUS
 62
20
 10
93.09785
 20
17.00813
 40
1.2477
 41
0.9
 50
0
  1
3
 72
0
  0
TEXT
  8
Annotation
  6
CONTINUOUS
 62
20
 10
93.34603
 20
16.49825
 40
1.2477
 41
0.9
 50
0
  1
/
 72
0
  0
TEXT
  8
Annotation
  6
CONTINUOUS
 62
20
 10
93.71914
 20
16.10834
 40
1.2477
 41
0.9
 50
0
  1
16
 72
0
  0
LINE
  8
Annotation
  6
CONTINUOUS
 62
20
 10
93.20113
 20
18.20584
 11
93.20113
 21
20.67022
  0
ARC
  8
Annotation
  6
CONTINUOUS
 62
20
 10
99.415747928
 20
22.481743753
 40
6.234050551
 50
-175.474870024
 51
-159.909279186
  0
ARC
  8
Annotation
  6
CONTINUOUS
 62
20
 10
86.986511327
 20
22.481779407
 40
6.234054106
 50
-20.091057783
 51
-4.525456104
  0
LINE
  8
Annotation
  6
CONTINUOUS
 62
20
 10
92.84121
 20
20.3403
 11
93.56104
 21
20.3403
  0
LINE
  8
Annotation
  6
CONTINUOUS
 62
20
 10
93.57603
 20
21.9899
 11
89.80094
 21
21.9899
  0
ENDBLK
  0
BLOCK
  8
0
  2
*D8
 70
1
 10
0.0
 20
0.0
 30
0.0
  3
*D8
  1

  0
LINE
  8
Annotation
  6
CONTINUOUS
 62
20
 10
8.05112
 20
21.30258
 11
8.05112
 21
7.17396
  0
TEXT
  8
Annotation
  6
CONTINUOUS
 62
20
 10
0.74982
 20
6.91402
 40
1.94954
 41
0.9
 50
0
  1
1
 72
0
  0
TEXT
  8
Annotation
  6
CONTINUOUS
 62
20
 10
1.30331
 20
7.66085
 40
1.2477
 41
0.9
 50
0
  1
5
 72
0
  0
TEXT
  8
Annotation
  6
CONTINUOUS
 62
20
 10
1.5515
 20
7.15097
 40
1.2477
 41
0.9
 50
0
  1
/
 72
0
  0
TEXT
  8
Annotation
  6
CONTINUOUS
 62
20
 10
1.9246
 20
6.76106
 40
1.2477
 41
0.9
 50
0
  1
8
 72
0
  0
LINE
  8
Annotation
  6
CONTINUOUS
 62
20
 10
3.12691
 20
7.54887
 11
5.10644
 21
7.54887
  0
ARC
  8
Annotation
  6
CONTINUOUS
 62
20
 10
6.917964491
 20
1.334248687
 40
6.234053984
 50
94.525134289
 51
110.090716502
  0
ARC
  8
Annotation
  6
CONTINUOUS
 62
20
 10
6.917999069
 20
13.763487126
 40
6.234052538
 50
-110.091059753
 51
-94.525454134
  0
LINE
  8
Annotation
  6
CONTINUOUS
 62
20
 10
4.77652
 20
7.90879
 11
4.77652
 21
7.18896
  0
LINE
  8
Annotation
  6
CONTINUOUS
 62
20
 10
6.42612
 20
7.17396
 11
6.42612
 21
21.55258
  0
ENDBLK
  0
BLOCK
  8
0
  2
*D9
 70
1
 10
0.0
 20
0.0
 30
0.0
  3
*D9
  1

  0
LINE
  8
Annotation
  6
CONTINUOUS
 62
20
 10
89.05112
 20
10.55229
 11
89.05112
 21
1.55848
  0
ARC
  8
Annotation
  6
CONTINUOUS
 62
20
 10
89.871162988
 20
-8.177585155
 40
10.393526109
 50
94.525306103
 51
110.090942473
  0
ARC
  8
Annotation
  6
CONTINUOUS
 62
20
 10
89.871127201
 20
12.544663800
 40
10.393521934
 50
-110.090740825
 51
-94.525110025
  0
LINE
  8
Annotation
  6
CONTINUOUS
 62
20
 10
86.30087
 20
2.78359
 11
86.30087
 21
1.58348
  0
LINE
  8
Annotation
  6
CONTINUOUS
 62
20
 10
86.85091
 20
2.18354
 11
51.09462
 21
2.18354
  0
TEXT
  8
Annotation
  6
CONTINUOUS
 62
20
 10
45.67858
 20
1.1251
 40
3.2503
 41
0.9
 50
0
  1
82
 72
0
  0
TEXT
  8
Annotation
  6
CONTINUOUS
 62
20
 10
48.28203
 20
2.37022
 40
2.08019
 41
0.9
 50
0
  1
5
 72
0
  0
TEXT
  8
Annotation
  6
CONTINUOUS
 62
20
 10
48.69581
 20
1.52014
 40
2.08019
 41
0.9
 50
0
  1
/
 72
0
  0
TEXT
  8
Annotation
  6
CONTINUOUS
 62
20
 10
49.31785
 20
0.87008
 40
2.08019
 41
0.9
 50
0
  1
8
 72
0
  0
LINE
  8
Annotation
  6
CONTINUOUS
 62
20
 10
44.42847
 20
2.18354
 11
8.62632
 21
2.18354
  0
ARC
  8
Annotation
  6
CONTINUOUS
 62
20
 10
5.606112838
 20
12.544663621
 40
10.393521754
 50
-85.474890111
 51
-69.909259039
  0
ARC
  8
Annotation
  6
CONTINUOUS
 62
20
 10
5.606076801
 20
-8.177586124
 40
10.393527091
 50
69.909058267
 51
85.474693157
  0
LINE
  8
Annotation
  6
CONTINUOUS
 62
20
 10
9.17637
 20
1.58348
 11
9.17637
 21
2.78359
  0
LINE
  8
Annotation
  6
CONTINUOUS
 62
20
 10
6.42612
 20
1.55848
 11
6.42612
 21
21.05229
  0
ENDBLK
  0
BLOCK
  8
0
  2
*D10
 70
1
 10
0.0
 20
0.0
 30
0.0
  3
*D10
  1

  0
LINE
  8
Annotation
  6
CONTINUOUS
 62
20
 10
90.30123
 20
52.8024
 11
101.84814
 21
52.8024
  0
ARC
  8
Annotation
  6
CONTINUOUS
 62
20
 10
111.584212129
 20
53.622431528
 40
10.393532158
 50
-175.474759908
 51
-159.909078293
  0
ARC
  8
Annotation
  6
CONTINUOUS
 62
20
 10
90.861953576
 20
53.622394792
 40
10.393523572
 50
-20.090723384
 51
-4.525040691
  0
LINE
  8
Annotation
  6
CONTINUOUS
 62
20
 10
100.62303
 20
50.05214
 11
101.82314
 21
50.05214
  0
LINE
  8
Annotation
  6
CONTINUOUS
 62
20
 10
101.22308
 20
50.6022
 11
101.22308
 21
34.15287
  0
TEXT
  8
Annotation
  6
CONTINUOUS
 62
20
 10
100.4716
 20
31.02758
 40
3.2503
 41
0.9
 50
0
  1
41
 72
0
  0
LINE
  8
Annotation
  6
CONTINUOUS
 62
20
 10
101.22308
 20
29.90248
 11
101.22307
 21
14.0026
  0
ARC
  8
Annotation
  6
CONTINUOUS
 62
20
 10
90.861944818
 20
10.982357006
 40
10.393526136
 50
4.525306124
 51
20.090942452
  0
ARC
  8
Annotation
  6
CONTINUOUS
 62
20
 10
111.584190670
 20
10.982357991
 40
10.393521561
 50
159.909054100
 51
175.474697324
  0
LINE
  8
Annotation
  6
CONTINUOUS
 62
20
 10
101.82313
 20
14.55265
 11
100.62301
 21
14.55265
  0
LINE
  8
Annotation
  6
CONTINUOUS
 62
20
 10
101.84812
 20
11.8024
 11
90.30123
 21
11.8024
  0
ENDBLK
  0
ENDSEC
  0
SECTION
  2
ENTITIES
  0
TEXT
  8
Annotation
  6
CONTINUOUS
 62
20
 10
107.74544
 20
27.37156
 40
1.2025
 41
0.9
 50
90
  1
CORRUGATION
 72
0
  0
DIMENSION
  1
{20+3/16}
  2
*D1
  3
STANDARD
 70
33
  8
Annotation
  6
CONTINUOUS
 62
20
 10
8.05112
 20
7.54887
 11
18.12339
 21
7.54887
 13
8.05112
 23
21.30258
 14
28.23862
 24
21.30258
  0
DIMENSION
  1
{20+5/16}
  2
*D2
  3
STANDARD
 70
33
  8
Annotation
  6
CONTINUOUS
 62
20
 10
28.23862
 20
7.43485
 11
38.55599
 21
7.43485
 13
28.23862
 23
21.30258
 14
48.55112
 24
21.30258
  0
DIMENSION
  1
{20+5/16}
  2
*D3
  3
STANDARD
 70
33
  8
Annotation
  6
CONTINUOUS
 62
20
 10
48.55112
 20
7.43485
 11
59.78728
 21
7.43485
 13
48.55112
 23
21.30258
 14
68.86362
 24
21.30258
  0
DIMENSION
  1
{20+3/16}
  2
*D4
  3
STANDARD
 70
32
  8
Annotation
  6
CONTINUOUS
 62
20
 10
68.86362
 20
7.43485
 11
79.3071
 21
7.43485
 13
68.86362
 23
21.30258
 14
89.05112
 24
11.05258
 50
180.00
  0
DIMENSION
  1
{20+5/8}
  2
*D5
  3
STANDARD
 70
33
  8
Annotation
  6
CONTINUOUS
 62
20
 10
93.20113
 20
21.9899
 11
93.20113
 21
32.3024
 13
89.80094
 23
21.9899
 14
89.80094
 24
42.6149
  0
DIMENSION
  1
{10+3/16}
  2
*D6
  3
STANDARD
 70
33
  8
Annotation
  6
CONTINUOUS
 62
20
 10
93.20113
 20
42.61491
 11
93.20113
 21
47.70865
 13
89.80094
 23
42.61491
 14
89.80094
 24
52.8024
  0
DIMENSION
  1
{10+3/16}
  2
*D7
  3
STANDARD
 70
33
  8
Annotation
  6
CONTINUOUS
 62
20
 10
93.20113
 20
11.80241
 11
93.20113
 21
16.89616
 13
89.80094
 23
11.80241
 14
89.80094
 24
21.9899
  0
DIMENSION
  1
{1+5/8}
  2
*D8
  3
STANDARD
 70
32
  8
Annotation
  6
CONTINUOUS
 62
20
 10
8.05112
 20
7.54887
 11
1.56345
 21
7.54887
 13
8.05112
 23
21.30258
 14
6.42612
 24
21.55258
 50
180.00
  0
DIMENSION
  1
{82+5/8}
  2
*D9
  3
STANDARD
 70
32
  8
Annotation
  6
CONTINUOUS
 62
20
 10
89.05112
 20
2.18354
 11
47.76154
 21
2.18354
 13
89.05112
 23
10.55229
 14
6.42612
 24
21.05229
 50
180.00
  0
DIMENSION
  1
41
  2
*D10
  3
STANDARD
 70
33
  8
Annotation
  6
CONTINUOUS
 62
20
 10
101.22308
 20
52.8024
 11
101.22308
 21
32.02768
 13
90.30123
 23
52.8024
 14
90.30123
 24
11.8024
  0
LINE
  8
Design
  6
CONTINUOUS
 62
1
 10
8.05112
 20
42.61491
 11
8.30112
 21
42.61491
  0
LINE
  8
Design
  6
CONTINUOUS
 62
1
 10
8.30112
 20
42.61491
 11
8.30112
 21
52.8024
  0
LINE
  8
Design
  6
CONTINUOUS
 62
1
 10
8.30112
 20
52.8024
 11
27.98862
 21
52.8024
  0
LINE
  8
Design
  6
CONTINUOUS
 62
1
 10
27.98862
 20
52.8024
 11
27.98862
 21
42.61491
  0
LINE
  8
Design
  6
CONTINUOUS
 62
1
 10
27.98862
 20
42.61491
 11
28.23862
 21
42.61491
  0
LINE
  8
Design
  6
CONTINUOUS
 62
1
 10
28.23862
 20
42.61491
 11
28.48862
 21
42.61491
  0
LINE
  8
Design
  6
CONTINUOUS
 62
1
 10
28.48862
 20
42.61491
 11
28.48862
 21
52.8024
  0
LINE
  8
Design
  6
CONTINUOUS
 62
1
 10
28.48862
 20
52.8024
 11
48.30112
 21
52.8024
  0
LINE
  8
Design
  6
CONTINUOUS
 62
1
 10
48.30112
 20
52.8024
 11
48.30112
 21
42.61491
  0
LINE
  8
Design
  6
CONTINUOUS
 62
1
 10
48.30112
 20
42.61491
 11
48.55112
 21
42.61491
  0
LINE
  8
Design
  6
CONTINUOUS
 62
1
 10
48.55112
 20
42.61491
 11
48.80112
 21
42.61491
  0
LINE
  8
Design
  6
CONTINUOUS
 62
1
 10
48.80112
 20
42.61491
 11
48.80112
 21
52.8024
  0
LINE
  8
Design
  6
CONTINUOUS
 62
1
 10
48.80112
 20
52.8024
 11
68.61362
 21
52.8024
  0
LINE
  8
Design
  6
CONTINUOUS
 62
1
 10
68.61362
 20
52.8024
 11
68.61362
 21
42.61491
  0
LINE
  8
Design
  6
CONTINUOUS
 62
1
 10
68.61362
 20
42.61491
 11
68.86362
 21
42.61491
  0
LINE
  8
Design
  6
CONTINUOUS
 62
1
 10
68.86362
 20
42.61491
 11
69.11362
 21
42.61491
  0
LINE
  8
Design
  6
CONTINUOUS
 62
1
 10
69.11362
 20
42.61491
 11
69.11362
 21
52.8024
  0
LINE
  8
Design
  6
CONTINUOUS
 62
1
 10
69.11362
 20
52.8024
 11
89.05112
 21
52.8024
  0
LINE
  8
Design
  6
CONTINUOUS
 62
1
 10
89.05112
 20
52.8024
 11
89.05112
 21
42.61491
  0
LINE
  8
Design
  6
CONTINUOUS
 62
1
 10
8.05112
 20
21.9899
 11
8.30112
 21
21.9899
  0
LINE
  8
Design
  6
CONTINUOUS
 62
1
 10
8.30112
 20
21.9899
 11
8.30112
 21
11.80241
  0
LINE
  8
Design
  6
CONTINUOUS
 62
1
 10
8.30112
 20
11.80241
 11
27.98862
 21
11.80241
  0
LINE
  8
Design
  6
CONTINUOUS
 62
1
 10
27.98862
 20
11.80241
 11
27.98862
 21
21.9899
  0
LINE
  8
Design
  6
CONTINUOUS
 62
1
 10
27.98862
 20
21.9899
 11
28.23862
 21
21.9899
  0
LINE
  8
Design
  6
CONTINUOUS
 62
1
 10
28.23862
 20
21.9899
 11
28.48862
 21
21.9899
  0
LINE
  8
Design
  6
CONTINUOUS
 62
1
 10
28.48862
 20
21.9899
 11
28.48862
 21
11.80241
  0
LINE
  8
Design
  6
CONTINUOUS
 62
1
 10
28.48862
 20
11.80241
 11
48.30112
 21
11.80241
  0
LINE
  8
Design
  6
CONTINUOUS
 62
1
 10
48.30112
 20
11.80241
 11
48.30112
 21
21.9899
  0
LINE
  8
Design
  6
CONTINUOUS
 62
1
 10
48.30112
 20
21.9899
 11
48.55112
 21
21.9899
  0
LINE
  8
Design
  6
CONTINUOUS
 62
1
 10
48.55112
 20
21.9899
 11
48.80112
 21
21.9899
  0
LINE
  8
Design
  6
CONTINUOUS
 62
1
 10
48.80112
 20
21.9899
 11
48.80112
 21
11.80241
  0
LINE
  8
Design
  6
CONTINUOUS
 62
1
 10
48.80112
 20
11.80241
 11
68.61362
 21
11.80241
  0
LINE
  8
Design
  6
CONTINUOUS
 62
1
 10
68.61362
 20
11.80241
 11
68.61362
 21
21.9899
  0
LINE
  8
Design
  6
CONTINUOUS
 62
1
 10
68.61362
 20
21.9899
 11
68.86362
 21
21.9899
  0
LINE
  8
Design
  6
CONTINUOUS
 62
1
 10
68.86362
 20
21.9899
 11
69.11362
 21
21.9899
  0
LINE
  8
Design
  6
CONTINUOUS
 62
1
 10
69.11362
 20
21.9899
 11
69.11362
 21
11.80241
  0
LINE
  8
Design
  6
CONTINUOUS
 62
1
 10
69.11362
 20
11.80241
 11
89.05112
 21
11.80241
  0
LINE
  8
Design
  6
CONTINUOUS
 62
1
 10
89.05112
 20
11.80241
 11
89.05112
 21
21.9899
  0
LINE
  8
Design
  6
CONTINUOUS
 62
2
 10
8.30112
 20
42.61491
 11
27.98862
 21
42.61491
  0
LINE
  8
Design
  6
CONTINUOUS
 62
2
 10
28.23862
 20
42.61491
 11
28.23862
 21
21.9899
  0
LINE
  8
Design
  6
CONTINUOUS
 62
2
 10
27.98862
 20
21.9899
 11
8.30112
 21
21.9899
  0
LINE
  8
Design
  6
CONTINUOUS
 62
2
 10
28.48862
 20
21.9899
 11
48.30112
 21
21.9899
  0
LINE
  8
Design
  6
CONTINUOUS
 62
2
 10
48.55112
 20
21.9899
 11
48.55112
 21
42.61491
  0
LINE
  8
Design
  6
CONTINUOUS
 62
2
 10
48.30112
 20
42.61491
 11
28.48862
 21
42.61491
  0
LINE
  8
Design
  6
CONTINUOUS
 62
2
 10
48.80112
 20
42.61491
 11
68.61362
 21
42.61491
  0
LINE
  8
Design
  6
CONTINUOUS
 62
2
 10
68.86362
 20
42.61491
 11
68.86362
 21
21.9899
  0
LINE
  8
Design
  6
CONTINUOUS
 62
2
 10
68.61362
 20
21.9899
 11
48.80112
 21
21.9899
  0
LINE
  8
Design
  6
CONTINUOUS
 62
2
 10
69.11362
 20
21.9899
 11
89.05112
 21
21.9899
  0
LINE
  8
Design
  6
CONTINUOUS
 62
1
 10
89.05112
 20
21.9899
 11
89.05112
 21
42.61491
  0
LINE
  8
Design
  6
CONTINUOUS
 62
2
 10
89.05112
 20
42.61491
 11
69.11362
 21
42.61491
  0
LINE
  8
Design
  6
CONTINUOUS
 62
2
 10
8.05112
 20
42.61491
 11
8.05112
 21
21.9899
  0
LINE
  8
Design
  6
CONTINUOUS
 62
1
 10
8.05112
 20
21.9899
 11
6.42612
 21
22.2399
  0
LINE
  8
Design
  6
CONTINUOUS
 62
1
 10
6.42612
 20
22.2399
 11
6.42612
 21
42.36491
  0
LINE
  8
Design
  6
CONTINUOUS
 62
1
 10
6.42612
 20
42.36491
 11
8.05112
 21
42.6149
  0
LINE
  8
Design
  6
CONTINUOUS
 62
10
 10
108.02293
 20
39.29795
 11
108.02293
 21
23.88128
  0
LINE
  8
Design
  6
CONTINUOUS
 62
10
 10
108.02293
 20
23.88128
 11
107.08773
 21
26.45073
  0
LINE
  8
Design
  6
CONTINUOUS
 62
10
 10
108.02293
 20
39.29795
 11
108.95814
 21
36.7285
  0
ENDSEC
  0
EOF
